<svg id="Layer_1" data-name="Layer 1" xmlns="http://www.w3.org/2000/svg" viewBox="0 0 265.39 230.55"><defs><style>.cls-1{fill:#fff;}</style></defs><title>blanc</title><polygon class="cls-1" points="265.39 68.09 203.43 68.09 226.53 6 265.39 68.09"/><polygon class="cls-1" points="38.79 6.09 61.48 68.09 0 68.09 38.79 6.09"/><polygon class="cls-1" points="75.6 77.77 189.79 77.77 131.4 230.55 75.6 77.77"/><path class="cls-1" d="M431.51,415.8c17.22-46.33,37.72-96,55-142.32.78-2.07,1.11-4.28,4.52-4.24,20,.18,39.93.09,61,.09-2.51,3.18-4.37,5.58-6.27,7.94C509.71,322.06,429.7,419.14,431.51,415.8Z" transform="translate(-288.25 -191.56)"/><path class="cls-1" d="M289.81,269.33c20.95,0,40.7.1,60.45-.09,3.8,0,3.87,2.59,4.69,4.81,14,38.12,52.92,141.75,52.92,141.75S295.31,276.2,289.81,269.33Z" transform="translate(-288.25 -191.56)"/><polygon class="cls-1" points="79.89 67.71 132.68 2.71 185.51 67.71 79.89 67.71"/><polygon class="cls-1" points="70.4 63.59 47.15 0 122.12 0 70.4 63.59"/><polygon class="cls-1" points="194.63 63.17 143.3 0.05 218.16 0.05 194.63 63.17"/></svg>